PathFileType	4	(X/Y/Z)	C:/Users/beibeiliu/ov580/test_trc/User3\sequence.8_training_dense_right.trc
DataRate	CameraRate	NumFrames	NumMarkers	Units	OrigDataRate	OrigDataStartFrame	OrigNumFrames
120	120	16	19	mm	120	59	235
Frame#	Time	ThumbCMC			ThumbMCP			ThumbIP			ThumbTip			IndexMCP			IndexPIP			IndexTip			MiddleMCP			MiddlePIP			MiddleTip			RingMCP			RingPIP			RingTip			PinkyMCP			PinkyPIP			PinkyTip			BackHand1			BackHand2			BackHand3	
		X0	Y0	Z0	X1	Y1	Z1	X2	Y2	Z2	X3	Y3	Z3	X4	Y4	Z4	X5	Y5	Z5	X6	Y6	Z6	X7	Y7	Z7	X8	Y8	Z8	X9	Y9	Z9	X10	Y10	Z10	X11	Y11	Z11	X12	Y12	Z12	X13	Y13	Z13	X14	Y14	Z14	X15	Y15	Z15	X16	Y16	Z16	X17	Y17	Z17	X18	Y18	Z18	
58	0.483333	110.841	-21.0181	51.5153	86.8543	-27.2387	30.0262	74.6313	-32.855	2.63844	83.156	-44.183	-21.4096	105.904	6.36931	-16.6707	91.1303	16.6941	-38.8788	82.3121	20.9981	-60.3745	116.379	-17.4478	-31.4163	98.4533	-47.4849	-38.0531	104.798	-54.4232	1.43359	127.739	-34.697	-28.0631	116.583	-64.0395	-23.7461	119.009	-61.2605	7.58032	146.665	-49.3765	-25.3298	128.295	-69.8247	-19.2868	129.887	-68.6333	12.1902	162.61	-16.0152	16.4304	173.997	-19.7426	45.9183	140.21	-1.83726	40.8699	
59	0.491667	111.106	-22.0015	52.2948	83.939	-25.605	30.0671	79.8778	-32.2512	-0.17447	81.5646	-42.431	-20.5001	101.594	9.53806	-14.299	91.4701	16.4158	-37.1029	82.808	21.6741	-61.3369	112.984	-17.0055	-33.881	95.961	-44.4654	-38.3992	103.704	-55.3343	-2.73096	128.924	-35.4532	-30.1925	115.471	-63.1898	-24.7734	121.791	-60.4006	7.55927	147.358	-47.0253	-24.9529	129.504	-69.2443	-20.878	128.694	-66.1064	8.05645	158.752	-13.1558	12.5942	172.769	-18.3297	45.1945	140.536	-1.1329	41.4264	
60	0.5	108.763	-21.3501	55.6715	89.0445	-25.9743	29.6496	76.7248	-31.3765	1.69582	79.1646	-41.8558	-23.0484	102.577	10.6327	-17.7519	86.161	17.4499	-39.3701	74.7062	22.0829	-61.2341	113.369	-13.232	-30.4459	93.0787	-39.6476	-38.145	107.366	-53.9772	0.192103	127.398	-36.5824	-31.7982	115.358	-60.9853	-24.2253	122.136	-57.7614	8.90926	147.605	-47.2327	-25.0596	125.218	-64.8053	-18.6497	130.692	-67.4047	9.04152	161.609	-12.0268	13.2156	173.19	-17.3036	43.2738	139.309	0.747623	38.3711	
61	0.508333	109.596	-20.1007	51.8985	84.7449	-26.329	31.6541	74.8957	-31.8963	0.842201	82.8442	-41.4257	-20.2963	101.149	8.06736	-13.8013	86.6048	11.4894	-41.0338	70.3622	11.9758	-58.3882	116.974	-16.0345	-30.7966	93.3472	-41.9536	-37.0722	102.503	-53.3359	-0.442675	126.479	-33.5674	-28.8118	113.48	-59.5104	-26.2563	120.696	-59.8413	8.09385	143.444	-45.3879	-25.912	129.387	-66.4219	-21.2249	128.756	-62.7596	12.9809	160.828	-13.0366	12.4063	172.972	-17.2116	42.2265	137.065	1.35115	40.7221	
62	0.516667	109.513	-19.9293	53.9741	87.8779	-26.8463	30.5196	77.7807	-31.8833	-1.75598	81.9707	-41.5843	-22.2967	100.993	2.67855	-16.5696	84.9037	1.58045	-38.9964	64.1221	-4.01466	-59.4352	113.707	-16.7685	-35.3543	94.6761	-42.2855	-38.1325	106.6	-55.7176	-0.566272	131.091	-34.8696	-28.7882	112.522	-61.562	-23.4401	121.53	-58.55	10.9152	148.835	-46.5334	-25.2684	128.47	-66.5511	-19.4564	129.036	-62.1544	11.1985	160.95	-11.8829	15.7621	175.501	-16.6039	43.9652	137.81	-0.683861	38.5772	
63	0.525	109.096	-21.273	53.0017	89.0912	-27.8143	29.3441	77.9445	-33.2544	0.645917	83.4876	-43.7661	-24.8646	99.2094	-2.4733	-18.2673	75.9151	-6.14523	-39.113	64.6198	-21.8302	-59.2413	115.5	-17.7966	-32.5806	97.68	-42.3009	-40.5942	108.635	-59.6329	-1.66805	132.648	-35.2285	-28.442	118.642	-62.4615	-26.6028	122.685	-63.3323	5.97896	149.78	-46.1583	-24.6231	131.334	-64.8284	-22.5702	131.213	-67.6582	9.15673	160.708	-9.72329	12.6524	173.808	-15.526	45.0638	135.217	-0.479795	39.6992	
64	0.533333	113.104	-23.4636	57.7765	88.2856	-27.4289	28.2699	78.304	-35.1051	3.38835	86.3021	-44.0141	-23.0046	97.504	-1.25524	-15.0613	76.4816	-9.16857	-40.3136	65.0478	-24.2208	-58.3469	113.15	-16.5956	-31.141	100.103	-44.7779	-40.1235	104.28	-60.0677	-3.47467	132.316	-35.2966	-28.5053	119.278	-66.1509	-24.7411	120.933	-65.3055	5.29187	148.827	-45.7055	-24.2375	132.081	-68.048	-20.9796	133.751	-70.5461	9.25133	162.411	-11.9488	12.3485	175.368	-15.3639	44.0123	139.202	-1.9185	41.0228	
65	0.541667	112.314	-21.9978	55.9189	92.678	-28.6001	30.0458	80.532	-34.3679	3.17471	86.4666	-45.478	-19.5566	101.862	-0.763115	-16.1763	85.3574	-7.16158	-42.8649	70.4485	-16.8165	-59.2519	117.705	-19.9909	-35.6752	101.049	-45.2719	-40.1036	104.079	-59.7402	-4.09521	130.235	-36.6887	-29.1335	116.693	-63.4342	-25.2736	120.117	-63.0447	8.34097	148.409	-47.8744	-24.8917	133.012	-70.7779	-18.3189	132.876	-68.6823	8.59865	164.809	-13.3934	15.401	174.728	-17.3837	46.1263	142.443	-0.311732	37.5962	
66	0.55	112.275	-20.911	55.1076	92.5005	-28.8196	31.032	80.443	-34.4189	0.00590916	88.8953	-46.0347	-20.1382	104.145	0.113534	-20.3657	87.0421	0.860667	-40.0068	70.3844	-8.9824	-64.1659	119.204	-19.0888	-32.2015	101.184	-46.8151	-39.2469	109.702	-59.311	-0.599285	132.038	-39.3921	-31.5801	118.884	-66.5311	-22.6239	121.803	-63.6446	8.01871	150.515	-48.2952	-24.9381	134.55	-68.9345	-21.6554	136.855	-69.6453	11.2678	166.834	-13.3849	10.836	176.37	-18.3232	42.3182	143.049	-1.92593	39.8947	
67	0.558333	111.907	-19.6274	55.4896	92.2976	-27.6502	29.681	84.906	-34.5863	-0.323818	87.47	-46.2236	-20.5686	106.541	2.79495	-20.1871	89.0302	4.53033	-42.1706	77.4784	-1.16612	-65.9841	114.943	-19.2993	-34.0565	102.53	-46.3318	-39.0549	110.134	-58.8011	-2.5545	136.449	-36.1754	-28.8797	119.828	-63.0966	-25.8254	124.167	-62.4422	7.52438	153.419	-48.9374	-24.908	131.673	-68.6484	-17.8413	136.206	-68.452	10.4996	166.31	-12.4065	14.5427	179.861	-17.1947	44.2025	140.712	1.16778	38.0788	
68	0.566667	112.808	-20.0382	54.6186	93.8394	-27.1976	30.8875	79.2019	-34.295	0.413711	86.6586	-45.1096	-22.2627	108.858	4.07011	-18.2096	96.0829	7.77869	-41.8573	79.7807	7.4152	-63.8076	119.117	-19.0379	-36.9546	104.312	-45.0423	-39.4172	111.561	-56.8922	-2.07986	137.024	-36.4325	-30.8182	119.87	-61.113	-25.667	123.715	-58.8464	9.84648	151.565	-46.8946	-25.2819	134.865	-65.2807	-21.3315	135.316	-63.4344	11.8791	165.145	-10.1392	15.2235	177.658	-15.4632	41.1625	144.796	0.126113	36.2826	
69	0.575	115.679	-18.9864	49.5692	94.0751	-25.52	29.474	82.1664	-32.0734	-2.48383	87.3823	-43.9994	-20.8112	106.051	8.5067	-20.879	95.0991	11.8542	-42.2088	83.6913	13.3551	-64.2482	119.07	-15.5404	-34.9008	101.692	-42.6611	-39.6332	113.975	-55.5256	-3.57697	137.257	-33.4882	-29.8523	119.811	-58.5449	-27.0341	128.127	-59.756	7.64064	148.967	-44.6249	-25.8192	137.725	-67.7428	-21.3268	137.961	-65.4442	8.66101	167.063	-9.89105	11.5061	175.019	-13.3855	45.4305	142.068	0.579983	41.1225	
70	0.583333	116.065	-19.6735	51.8662	94.1642	-25.2904	26.7366	79.987	-31.4136	-1.90658	88.3751	-42.893	-24.3168	110.855	8.6336	-23.7004	97.9229	14.1543	-43.3621	85.3331	17.5649	-68.5074	123.869	-15.7151	-35.8111	102.169	-39.6201	-41.7077	112.174	-55.3917	-6.42878	135.867	-31.9216	-29.2585	120.201	-58.4961	-28.4892	123.014	-58.6551	6.26603	150.063	-43.5527	-26.9319	135.196	-66.4285	-19.3924	134.426	-64.1274	7.09924	166.678	-11.1216	10.9997	175.262	-14.3017	40.8138	144.302	2.84881	37.8394	
71	0.591667	115.524	-19.3356	50.5873	91.1806	-24.1563	28.7158	85.8965	-31.7296	-3.16772	91.2598	-43.2128	-27.1242	112.408	9.48702	-20.2606	103.537	14.0158	-46.056	91.9295	19.0375	-65.079	120.186	-14.6873	-36.4899	104.089	-39.9412	-42.7066	111.343	-52.7874	-2.14081	136.798	-32.8959	-30.8584	126.097	-59.4989	-28.8417	126.131	-57.5653	7.81534	155.026	-43.6959	-24.7419	136.578	-63.2541	-23.8256	136.725	-64.6692	4.63771	169.571	-9.68526	14.5928	176.729	-15.2446	46.7766	143.982	-0.75609	41.7875	
72	0.6	117.175	-20.1104	53.4082	93.7201	-23.9763	25.0507	86.9328	-30.8134	-4.06734	94.4929	-42.6325	-25.7448	117.226	8.25949	-18.4663	106.8	15.9811	-47.0528	98.748	18.9271	-70.0351	123.984	-14.5097	-36.0497	109.189	-42.3273	-43.102	111.724	-53.3938	-6.40318	139.622	-30.3702	-29.9831	123.108	-58.0921	-27.7196	130.091	-58.6627	5.5692	156.12	-40.808	-23.9506	137.165	-63.1746	-21.5101	140.165	-64.8547	9.00538	169.616	-9.10303	15.0241	178.257	-14.2547	41.2903	141.699	1.92801	37.8358	
73	0.608333	116.816	-19.1621	49.582	91.4214	-24.3135	27.0984	87.7409	-31.9153	-2.70641	94.6999	-41.5682	-24.7502	117.232	9.65495	-19.4438	105.653	17.2098	-43.7635	100.741	19.9806	-67.05	125	-13.659	-35.4093	110.639	-39.289	-44.1035	113.42	-53.9004	-6.87452	140.691	-29.5492	-29.2825	128.263	-60.4588	-29.1076	130.801	-58.6756	4.86115	158.514	-42.3682	-24.3707	142.427	-66.091	-22.8081	141.113	-65.4126	9.57979	167.028	-9.63267	14.2161	177.469	-14.9119	45.5288	143.258	0.325314	41.1998	
